<?xml version="1.0" encoding="UTF-8"?>
<svg width="320px" height="320px" viewBox="0 0 320 320" version="1.1" xmlns="http://www.w3.org/2000/svg" xmlns:xlink="http://www.w3.org/1999/xlink">
    <title>Logo</title>
    <defs>
        <path d="M120.875507,0 C146.212892,0 167.617425,24.0336819 174.509125,57.0002155 L219.220434,57 C224.125908,57 225.906699,57.4934716 227.713295,58.4293185 C229.51989,59.3651655 230.951843,60.7433877 231.956065,62.5128891 C232.960287,64.2823904 233.521471,66.0430167 233.708988,70.9449046 L240.991608,261.319956 C241.229115,267.528619 236.388537,272.754271 230.179874,272.991778 C230.036592,272.997259 229.893218,273 229.74983,273 L11.2500128,273 C5.03680938,273 1.28155941e-05,267.963203 1.28155941e-05,261.75 C1.28155941e-05,261.606613 0.00275413438,261.463239 0.00823526925,261.319956 L7.29085535,70.9449046 C7.4783725,66.0430167 8.03955615,64.2823904 9.0437782,62.5128891 C10.0480003,60.7433877 11.4799532,59.3651655 13.2865487,58.4293185 C15.0931443,57.4934716 16.8739356,57 21.7794089,57 L67.2418888,57.0002155 C74.1335892,24.0336819 95.5381224,0 120.875507,0 Z M120.875507,11.25 C102.170955,11.25 85.0919494,30.0475822 78.7703181,57.0005229 L162.980696,57.0005229 C156.659065,30.0475822 139.580059,11.25 120.875507,11.25 Z" id="path-1"></path>
    </defs>
    <g id="Logo" stroke="none" stroke-width="1" fill="none" fill-rule="evenodd">
        <rect fill="#FCB800" x="0" y="0" width="320" height="320"></rect>
        <g id="basket-mask" transform="translate(39.000000, 14.000000)">
            <mask id="mask-2" fill="white">
                <use xlink:href="#path-1"></use>
            </mask>
            <use id="Mask" fill="#0163A4" xlink:href="#path-1"></use>
            <rect id="Rectangle" fill="#00406B" mask="url(#mask-2)" x="120.499922" y="0" width="134.45957" height="283.5"></rect>
        </g>
        <g id="face" transform="translate(62.000000, 99.000000)">
            <g id="heart" transform="translate(2.625000, 0.000000)" fill-rule="nonzero">
                <path d="M15.7759547,15.7761052 C36.8130197,-5.25870175 70.9186922,-5.25870175 91.9557572,15.7761052 L94.8367097,18.6567485 L94.8367097,18.6567485 C109.367922,66.8753874 108.027552,117.892486 94.8367097,171 L56.7478622,132.913133 C56.7478622,132.913133 56.7478622,132.913133 56.7478622,132.913133 L15.7780622,91.947731 C-5.2590028,70.912924 -5.2590028,36.8109122 15.7759547,15.7761052 Z" id="Path" fill="#FCB800"></path>
                <path d="M173.897465,15.7761052 C152.8604,-5.25870175 118.754727,-5.25870175 97.7176622,15.7761052 L94.8367097,18.6567485 L94.8367097,171 L132.925557,132.915241 L173.895357,91.9498383 C194.932422,70.912924 194.932422,36.8109122 173.897465,15.7761052 Z" id="Path" fill="#FEC52B"></path>
            </g>
            <g transform="translate(66.750000, 42.922812)">
                <ellipse id="Oval" fill="#00406B" cx="11.625" cy="9.37399373" rx="8.625" ry="8.62407424"></ellipse>
                <ellipse id="Oval-Copy" fill="#00406B" cx="49.875" cy="8.62407424" rx="8.625" ry="8.62407424"></ellipse>
                <path d="M0,39.5683331 C6.25,52.0669914 16.125,58.3163206 29.625,58.3163206 C43.125,58.3163206 53,52.0669914 59.25,39.5683331" id="Path-3" stroke="#00406B" stroke-width="8.25" stroke-linecap="round"></path>
            </g>
        </g>
    </g>
</svg>